# Blender 4.2.0
# www.blender.org
mtllib BlackKey.mtl
o Cube
v 1.228115 2.000000 -9.472572
v 1.228115 -0.984690 -9.472572
v 1.228115 -0.984690 20.000000
v -3.000000 2.000000 -9.472572
v -3.000000 -0.984690 -9.472572
v -3.000000 -0.984690 20.000000
v 1.228115 2.000000 15.358353
v 1.228115 0.907728 20.000000
v -3.000000 0.907728 20.000000
v -3.000000 2.000000 15.358353
vn -1.0000 -0.0000 -0.0000
vn -0.0000 1.0000 -0.0000
vn -0.0000 -1.0000 -0.0000
vn -0.0000 -0.0000 1.0000
vn -0.0000 -0.0000 -1.0000
vn -0.0000 0.9734 0.2291
vn 1.0000 -0.0000 -0.0000
vt 0.375000 0.000000
vt 0.596577 0.000000
vt 0.625000 0.028423
vt 0.625000 0.250000
vt 0.375000 0.250000
vt 0.625000 0.500000
vt 0.875000 0.500000
vt 0.875000 0.721577
vt 0.625000 0.721577
vt 0.125000 0.500000
vt 0.375000 0.500000
vt 0.375000 0.750000
vt 0.125000 0.750000
vt 0.596577 0.750000
vt 0.596577 1.000000
vt 0.375000 1.000000
vt 0.625000 0.750000
vt 0.625000 1.000000
s 0
usemtl Material
f 6/1/1 9/2/1 10/3/1 4/4/1 5/5/1
f 1/6/2 4/7/2 10/8/2 7/9/2
f 5/10/3 2/11/3 3/12/3 6/13/3
f 3/12/4 8/14/4 9/15/4 6/16/4
f 5/5/5 4/4/5 1/6/5 2/11/5
f 7/17/6 10/18/6 9/15/6 8/14/6
f 2/11/7 1/6/7 7/9/7 8/14/7 3/12/7
