# Blender 4.2.0
# www.blender.org
mtllib Pad.mtl
o Cube
v 0.593210 0.321705 -1.559347
v 0.593210 -0.321705 -1.614371
v 0.593210 0.321705 1.609514
v 0.593210 -0.321705 1.609514
v -0.593210 0.321705 -2.728749
v -0.593210 -0.321705 -2.728759
v -0.593210 0.321705 1.609514
v -0.593210 -0.321705 1.609514
v 0.591548 -0.321872 1.609514
v -0.129820 -0.321872 2.263373
v -1.019613 -0.321872 1.609514
v -1.017151 -0.321872 3.269204
v 0.591548 0.320245 1.609514
v -0.128034 0.320245 2.246450
v -1.013080 0.320245 1.490506
v -1.013555 0.320245 3.154797
v -1.003349 0.316832 3.150625
v -1.009912 -0.321051 3.257832
v -1.462740 0.318813 4.716911
v -1.424746 -0.315055 4.716911
v -0.125730 0.317412 2.220880
v -0.119167 -0.315410 2.227443
v -0.119167 0.317412 3.723430
v -0.125730 -0.307758 3.715136
v -0.938346 0.318328 3.907616
v -0.938184 0.363998 3.907611
v -0.919515 0.318321 3.909480
v -0.919354 0.363991 3.909475
v -0.901408 0.318314 3.915000
v -0.901247 0.363984 3.914995
v -0.884721 0.318308 3.923964
v -0.884559 0.363978 3.923959
v -0.870094 0.318303 3.936027
v -0.869933 0.363973 3.936022
v -0.858090 0.318299 3.950727
v -0.857929 0.363969 3.950722
v -0.849171 0.318296 3.967497
v -0.849009 0.363966 3.967492
v -0.843678 0.318294 3.985694
v -0.843516 0.363964 3.985689
v -0.841823 0.318294 4.004619
v -0.841662 0.363963 4.004613
v -0.843678 0.318295 4.023543
v -0.843516 0.363964 4.023538
v -0.849171 0.318297 4.041740
v -0.849009 0.363967 4.041735
v -0.858090 0.318300 4.058510
v -0.857929 0.363970 4.058506
v -0.870094 0.318305 4.073210
v -0.869933 0.363975 4.073205
v -0.884721 0.318310 4.085274
v -0.884559 0.363980 4.085268
v -0.901408 0.318317 4.094237
v -0.901247 0.363986 4.094233
v -0.919515 0.318323 4.099757
v -0.919354 0.363993 4.099752
v -0.938346 0.318330 4.101621
v -0.938184 0.364000 4.101616
v -0.957176 0.318337 4.099757
v -0.957015 0.364007 4.099752
v -0.975283 0.318344 4.094237
v -0.975122 0.364013 4.094233
v -0.991971 0.318350 4.085274
v -0.991809 0.364019 4.085268
v -1.006597 0.318355 4.073210
v -1.006436 0.364025 4.073205
v -1.018601 0.318359 4.058510
v -1.018440 0.364029 4.058506
v -1.027521 0.318362 4.041740
v -1.027359 0.364032 4.041735
v -1.033013 0.318364 4.023543
v -1.032852 0.364034 4.023538
v -1.034868 0.318364 4.004619
v -1.034707 0.364034 4.004613
v -1.033013 0.318363 3.985694
v -1.032852 0.364033 3.985689
v -1.027521 0.318361 3.967497
v -1.027359 0.364031 3.967492
v -1.018601 0.318358 3.950727
v -1.018440 0.364028 3.950722
v -1.006597 0.318353 3.936027
v -1.006436 0.364023 3.936022
v -0.991971 0.318348 3.923964
v -0.991809 0.364017 3.923959
v -0.975283 0.318341 3.915000
v -0.975122 0.364011 3.914995
v -0.957176 0.318335 3.909480
v -0.957015 0.364005 3.909475
vn -0.0000 1.0000 -0.0000
vn -0.0000 -0.0000 1.0000
vn -1.0000 -0.0000 -0.0000
vn -0.0000 -1.0000 -0.0000
vn 1.0000 -0.0000 -0.0000
vn 0.6931 0.0308 -0.7202
vn -1.0000 0.0080 0.0006
vn 0.6672 0.0089 0.7448
vn 0.0368 -0.0924 -0.9950
vn 0.7321 0.0663 0.6780
vn -0.9597 -0.0471 -0.2772
vn 0.6025 0.0098 0.7980
vn -0.7411 -0.0599 -0.6688
vn -0.0002 1.0000 -0.0007
vn 0.0118 -0.9999 0.0063
vn 0.0985 -0.0005 -0.9951
vn 0.2916 -0.0011 -0.9565
vn 0.4732 -0.0018 -0.8809
vn 0.6363 -0.0023 -0.7715
vn 0.7745 -0.0028 -0.6325
vn 0.8829 -0.0032 -0.4696
vn 0.9573 -0.0034 -0.2890
vn 0.9952 -0.0035 -0.0975
vn 0.9952 -0.0035 0.0975
vn 0.9573 -0.0034 0.2890
vn 0.8829 -0.0031 0.4696
vn 0.7745 -0.0027 0.6325
vn 0.6363 -0.0022 0.7715
vn 0.4732 -0.0016 0.8809
vn 0.2916 -0.0009 0.9565
vn 0.0985 -0.0002 0.9951
vn -0.0985 0.0005 0.9951
vn -0.2916 0.0011 0.9565
vn -0.4732 0.0018 0.8809
vn -0.6363 0.0023 0.7715
vn -0.7745 0.0028 0.6325
vn -0.8829 0.0032 0.4696
vn -0.9573 0.0034 0.2890
vn -0.9952 0.0035 0.0975
vn -0.9952 0.0035 -0.0975
vn -0.9573 0.0033 -0.2890
vn -0.8829 0.0031 -0.4696
vn -0.7745 0.0027 -0.6325
vn -0.6363 0.0022 -0.7715
vn -0.4732 0.0016 -0.8809
vn 0.0004 1.0000 -0.0000
vn -0.2916 0.0009 -0.9565
vn -0.0985 0.0002 -0.9951
vn -0.0004 -1.0000 -0.0000
vt 0.625000 0.500000
vt 0.875000 0.500000
vt 0.875000 0.750000
vt 0.625000 0.750000
vt 0.375000 0.750000
vt 0.625000 1.000000
vt 0.375000 1.000000
vt 0.375000 0.000000
vt 0.625000 0.000000
vt 0.625000 0.250000
vt 0.375000 0.250000
vt 0.125000 0.500000
vt 0.375000 0.500000
vt 0.125000 0.750000
vt 1.000000 0.500000
vt 1.000000 1.000000
vt 0.968750 1.000000
vt 0.968750 0.500000
vt 0.937500 1.000000
vt 0.937500 0.500000
vt 0.906250 1.000000
vt 0.906250 0.500000
vt 0.875000 1.000000
vt 0.843750 1.000000
vt 0.843750 0.500000
vt 0.812500 1.000000
vt 0.812500 0.500000
vt 0.781250 1.000000
vt 0.781250 0.500000
vt 0.750000 1.000000
vt 0.750000 0.500000
vt 0.718750 1.000000
vt 0.718750 0.500000
vt 0.687500 1.000000
vt 0.687500 0.500000
vt 0.656250 1.000000
vt 0.656250 0.500000
vt 0.593750 1.000000
vt 0.593750 0.500000
vt 0.562500 1.000000
vt 0.562500 0.500000
vt 0.531250 1.000000
vt 0.531250 0.500000
vt 0.500000 1.000000
vt 0.500000 0.500000
vt 0.468750 1.000000
vt 0.468750 0.500000
vt 0.437500 1.000000
vt 0.437500 0.500000
vt 0.406250 1.000000
vt 0.406250 0.500000
vt 0.343750 1.000000
vt 0.343750 0.500000
vt 0.312500 1.000000
vt 0.312500 0.500000
vt 0.281250 1.000000
vt 0.281250 0.500000
vt 0.250000 1.000000
vt 0.250000 0.500000
vt 0.218750 1.000000
vt 0.218750 0.500000
vt 0.187500 1.000000
vt 0.187500 0.500000
vt 0.156250 1.000000
vt 0.156250 0.500000
vt 0.125000 1.000000
vt 0.093750 1.000000
vt 0.093750 0.500000
vt 0.062500 1.000000
vt 0.062500 0.500000
vt 0.296822 0.485388
vt 0.250000 0.489999
vt 0.203178 0.485388
vt 0.158156 0.471731
vt 0.116663 0.449552
vt 0.080294 0.419705
vt 0.050447 0.383336
vt 0.028269 0.341844
vt 0.014612 0.296821
vt 0.010000 0.250000
vt 0.014612 0.203177
vt 0.028269 0.158156
vt 0.050447 0.116663
vt 0.080294 0.080293
vt 0.116663 0.050447
vt 0.158156 0.028268
vt 0.203178 0.014611
vt 0.250000 0.009999
vt 0.296822 0.014611
vt 0.341844 0.028268
vt 0.383337 0.050447
vt 0.419706 0.080293
vt 0.449553 0.116663
vt 0.471731 0.158155
vt 0.485388 0.203177
vt 0.490000 0.250000
vt 0.485388 0.296821
vt 0.471731 0.341844
vt 0.449553 0.383336
vt 0.419706 0.419705
vt 0.383337 0.449552
vt 0.341844 0.471731
vt 0.031250 1.000000
vt 0.031250 0.500000
vt 0.000000 1.000000
vt 0.000000 0.500000
vt 0.750000 0.490000
vt 0.796821 0.485388
vt 0.841844 0.471731
vt 0.883337 0.449552
vt 0.919706 0.419705
vt 0.949553 0.383336
vt 0.971731 0.341843
vt 0.985389 0.296822
vt 0.990000 0.249999
vt 0.985389 0.203178
vt 0.971731 0.158155
vt 0.949553 0.116663
vt 0.919706 0.080294
vt 0.883337 0.050446
vt 0.841844 0.028268
vt 0.796821 0.014612
vt 0.750000 0.010000
vt 0.703178 0.014612
vt 0.658156 0.028268
vt 0.616663 0.050446
vt 0.580294 0.080294
vt 0.550447 0.116663
vt 0.528269 0.158155
vt 0.514611 0.203178
vt 0.510000 0.249999
vt 0.514611 0.296822
vt 0.528269 0.341844
vt 0.550447 0.383336
vt 0.580294 0.419705
vt 0.616663 0.449552
vt 0.658156 0.471731
vt 0.703178 0.485388
s 0
usemtl Material
f 1/1/1 5/2/1 7/3/1 3/4/1
f 4/5/2 3/4/2 7/6/2 8/7/2
f 8/8/3 7/9/3 5/10/3 6/11/3
f 6/12/4 2/13/4 4/5/4 8/14/4
f 2/13/5 1/1/5 3/4/5 4/5/5
f 6/11/6 5/10/6 1/1/6 2/13/6
f 9/8/4 10/9/4 12/10/4 11/11/4
f 11/11/7 12/10/7 16/1/7 15/13/7
f 15/13/1 16/1/1 14/4/1 13/5/1
f 13/5/8 14/4/8 10/6/8 9/7/8
f 11/12/9 15/13/9 13/5/9 9/14/9
f 16/1/10 12/2/10 10/3/10 14/4/10
f 17/8/11 18/9/11 20/10/11 19/11/11
f 19/11/12 20/10/12 24/1/12 23/13/12
f 23/13/5 24/1/5 22/4/5 21/5/5
f 21/5/13 22/4/13 18/6/13 17/7/13
f 19/12/14 23/13/14 21/5/14 17/14/14
f 24/1/15 20/2/15 18/3/15 22/4/15
f 25/15/16 26/16/16 28/17/16 27/18/16
f 27/18/17 28/17/17 30/19/17 29/20/17
f 29/20/18 30/19/18 32/21/18 31/22/18
f 31/22/19 32/21/19 34/23/19 33/2/19
f 33/2/20 34/23/20 36/24/20 35/25/20
f 35/25/21 36/24/21 38/26/21 37/27/21
f 37/27/22 38/26/22 40/28/22 39/29/22
f 39/29/23 40/28/23 42/30/23 41/31/23
f 41/31/24 42/30/24 44/32/24 43/33/24
f 43/33/25 44/32/25 46/34/25 45/35/25
f 45/35/26 46/34/26 48/36/26 47/37/26
f 47/37/27 48/36/27 50/6/27 49/1/27
f 49/1/28 50/6/28 52/38/28 51/39/28
f 51/39/29 52/38/29 54/40/29 53/41/29
f 53/41/30 54/40/30 56/42/30 55/43/30
f 55/43/31 56/42/31 58/44/31 57/45/31
f 57/45/32 58/44/32 60/46/32 59/47/32
f 59/47/33 60/46/33 62/48/33 61/49/33
f 61/49/34 62/48/34 64/50/34 63/51/34
f 63/51/35 64/50/35 66/7/35 65/13/35
f 65/13/36 66/7/36 68/52/36 67/53/36
f 67/53/37 68/52/37 70/54/37 69/55/37
f 69/55/38 70/54/38 72/56/38 71/57/38
f 71/57/39 72/56/39 74/58/39 73/59/39
f 73/59/40 74/58/40 76/60/40 75/61/40
f 75/61/41 76/60/41 78/62/41 77/63/41
f 77/63/42 78/62/42 80/64/42 79/65/42
f 79/65/43 80/64/43 82/66/43 81/12/43
f 81/12/44 82/66/44 84/67/44 83/68/44
f 83/68/45 84/67/45 86/69/45 85/70/45
f 28/71/46 26/72/46 88/73/46 86/74/46 84/75/46 82/76/46 80/77/46 78/78/46 76/79/46 74/80/46 72/81/46 70/82/46 68/83/46 66/84/46 64/85/46 62/86/46 60/87/46 58/88/46 56/89/46 54/90/46 52/91/46 50/92/46 48/93/46 46/94/46 44/95/46 42/96/46 40/97/46 38/98/46 36/99/46 34/100/46 32/101/46 30/102/46
f 85/70/47 86/69/47 88/103/47 87/104/47
f 87/104/48 88/103/48 26/105/48 25/106/48
f 25/107/49 27/108/49 29/109/49 31/110/49 33/111/49 35/112/49 37/113/49 39/114/49 41/115/49 43/116/49 45/117/49 47/118/49 49/119/49 51/120/49 53/121/49 55/122/49 57/123/49 59/124/49 61/125/49 63/126/49 65/127/49 67/128/49 69/129/49 71/130/49 73/131/49 75/132/49 77/133/49 79/134/49 81/135/49 83/136/49 85/137/49 87/138/49
